<?xml version="1.0" encoding="UTF-8"?>
<svg id="Layer_1" data-name="Layer 1" xmlns="http://www.w3.org/2000/svg" viewBox="0 0 1801.95 322.83">
  <g>
    <path d="M18.06,40.55h56.68v196.71H18.06V40.55Z"/>
    <path d="M237.26,131.41h.56l43.06-90.85h68.62v196.71h-55.57l1.11-125.3h-.56l-54.73,108.35h-5l-54.73-108.35h-.56l1.11,125.3h-55.57V40.55h68.62l43.62,90.85Z"/>
    <path d="M399.51,237.26V40.55h73.63c53.07,0,79.18,23.34,79.18,67.24,0,40.84-25.56,65.29-71.12,65.29h-23.89v64.18h-57.79ZM457.3,129.18h14.17c17.23,0,25.84-6.95,25.84-21.39,0-15.28-8.89-21.95-25.84-21.95h-14.17v43.34Z"/>
    <path d="M804.01,201.97l38.62-26.95,5.28,1.11c8.89,12.5,20.56,18.89,34.17,18.89,11.67,0,19.17-5.28,19.17-12.5,0-8.33-5.28-12.78-38.34-26.67-36.12-15-49.73-32.23-49.73-61.96,0-33.06,31.4-58.62,73.63-58.62,31.12,0,56.96,13.06,73.63,36.67l-38.34,28.62-5.28-1.11c-7.22-10-17.5-16.39-29.45-16.39-10.56,0-15.84,4.45-15.84,10.84s3.06,9.45,38.06,24.45c36.67,15.56,50.29,33.34,50.29,58.34,0,38.06-32.23,65.85-77.52,65.85-32.78,0-60.57-13.89-78.35-40.56Z"/>
    <path d="M985.43,201.97l38.62-26.95,5.28,1.11c8.89,12.5,20.56,18.89,34.17,18.89,11.67,0,19.17-5.28,19.17-12.5,0-8.33-5.28-12.78-38.34-26.67-36.12-15-49.73-32.23-49.73-61.96,0-33.06,31.4-58.62,73.63-58.62,31.12,0,56.96,13.06,73.63,36.67l-38.34,28.62-5.28-1.11c-7.22-10-17.5-16.39-29.45-16.39-10.56,0-15.84,4.45-15.84,10.84s3.06,9.45,38.06,24.45c36.67,15.56,50.29,33.34,50.29,58.34,0,38.06-32.23,65.85-77.52,65.85-32.78,0-60.57-13.89-78.35-40.56Z"/>
    <path d="M1182.41,40.55h56.68v196.71h-56.68V40.55Z"/>
    <path d="M1289.37,237.26V40.55h70.01c49.73,0,72.79,19.73,72.79,52.23,0,19.45-12.78,35.56-31.95,41.12v.83c26.39,6.39,41.4,22.5,41.4,46.95,0,35.84-24.73,55.57-79.18,55.57h-73.07ZM1346.04,116.68h11.39c15,0,21.95-6.11,21.95-16.67,0-11.11-6.95-17.23-22.5-17.23h-10.84v33.9ZM1346.04,193.36h13.61c18.89,0,26.95-6.67,26.95-19.45,0-11.95-8.33-18.89-26.39-18.89h-14.17v38.34Z"/>
    <path d="M1481.62,40.55h56.68v145.31h81.68l-6.39,51.4h-131.97V40.55Z"/>
    <path d="M1656.93,40.55h126.14l5.28,47.79h-74.74v26.67h65.57v45.29h-65.57v29.17h74.74l-5.28,47.79h-126.14V40.55Z"/>
  </g>
  <g>
    <path d="M682.33,35.81c-57.24,0-103.65,46.4-103.65,103.65s46.4,103.65,103.65,103.65,103.65-46.4,103.65-103.65-46.4-103.65-103.65-103.65ZM682.33,187.75c-26.67,0-48.29-21.62-48.29-48.29s21.62-48.29,48.29-48.29,48.29,21.62,48.29,48.29-21.62,48.29-48.29,48.29Z"/>
    <rect x="666.18" y="-5.46" width="32.29" height="289.83" transform="translate(298.46 -441.63) rotate(45)"/>
  </g>
</svg>